# Blender v2.80 (sub 75) OBJ File: 'Buildings.blend'
# www.blender.org
mtllib Factory.mtl
o Cube.001
v -8.770016 0.100191 5.249793
v -8.770016 5.625392 5.249793
v -8.770016 0.100191 -2.216695
v -8.770016 5.625392 -2.216695
v -1.303528 0.100191 5.249793
v -1.303528 5.625392 5.249793
v -1.303528 0.100191 -2.216695
v -1.303528 5.625392 -2.216695
v -8.770016 2.045399 5.249793
v -8.770016 2.045399 -2.216695
v -1.303528 2.045399 -2.216695
v -1.303528 2.045399 5.249793
v -6.175418 0.100191 -2.216695
v -6.175418 5.625392 -2.216695
v -6.175418 0.100191 5.249793
v -6.175418 5.625392 5.249793
v -6.175418 2.045399 5.249793
v -6.175418 2.045399 -2.216695
v -8.770016 0.100191 3.088153
v -8.770016 5.625392 3.088153
v -1.303528 0.100191 3.088153
v -1.303528 5.625392 3.088153
v -1.303528 2.045399 3.088153
v -8.770016 2.045399 3.088153
v -6.175418 5.625392 3.088153
v -6.175418 0.100191 3.088153
v -1.370437 2.005327 -2.143841
v -1.370437 0.140264 -2.143841
v -1.370437 0.140264 2.942443
v -6.041601 2.005327 -2.143841
v -6.041601 0.140264 -2.143841
v -1.370437 2.005327 2.942443
v -8.770016 0.100191 4.918130
v -1.303528 5.625392 4.918130
v -1.303528 2.045399 4.918130
v -6.175418 5.625392 4.918130
v -6.175418 0.100191 4.918130
v -8.770016 5.625392 4.918130
v -1.303528 0.100191 4.918130
v -8.770016 2.045399 4.918130
v -8.770016 5.625392 3.333095
v -1.303528 0.100191 3.333095
v -8.770016 2.045399 3.333095
v -8.770016 0.100191 3.333095
v -1.303528 5.625392 3.333095
v -1.303528 2.045399 3.333095
v -6.175418 5.625392 3.333095
v -6.175418 0.100191 3.333095
v -1.378193 2.045399 3.333095
v -1.378193 2.045399 4.918130
v -1.378193 0.100191 4.918130
v -1.378193 0.100191 3.333095
v -8.770016 4.543200 5.249793
v -8.770016 4.543200 -2.216695
v -1.303528 4.543200 -2.216695
v -1.303528 4.543200 5.249793
v -6.175418 4.543200 5.249793
v -6.175418 4.543200 -2.216695
v -1.303528 4.543200 3.088153
v -8.770016 4.543200 3.088153
v -8.770016 4.543200 4.918130
v -1.303528 4.543200 4.918130
v -1.303528 4.543200 3.333095
v -8.770016 4.543200 3.333095
v -8.770016 3.128156 -2.216695
v -1.303528 3.128156 -2.216695
v -1.303528 3.128156 5.249793
v -6.175418 3.128156 5.249793
v -6.175418 3.128156 -2.216695
v -1.303528 3.128156 3.088153
v -8.770016 3.128156 3.088153
v -8.770016 3.128156 4.918130
v -1.303528 3.128156 4.918130
v -1.303528 3.128156 3.333095
v -8.770016 3.128156 3.333095
v -8.770016 3.128156 5.249793
v -8.693369 3.143460 5.193518
v -8.693369 4.527895 5.193518
v -8.693369 4.527895 4.869029
v -8.693369 4.527895 3.318280
v -1.388386 4.527895 3.078636
v -1.388386 4.527895 3.318280
v -1.388386 4.527895 4.869030
v -8.693369 4.527895 3.078636
v -1.388386 4.527895 -2.111465
v -8.693369 4.527895 -2.111465
v -6.154894 4.527895 -2.111465
v -1.388386 4.527895 5.193518
v -6.154894 4.527895 5.193518
v -8.693369 3.143460 -2.111465
v -1.388386 3.143460 -2.111465
v -1.388386 3.143460 5.193518
v -6.154894 3.143460 5.193518
v -6.154894 3.143460 -2.111465
v -1.388386 3.143460 3.078636
v -8.693369 3.143460 3.078636
v -8.693369 3.143460 4.869029
v -1.388386 3.143460 4.869030
v -1.388386 3.143460 3.318280
v -8.693369 3.143460 3.318280
v -5.319372 16.385300 -1.284573
v -2.159575 16.385300 -1.284573
v -2.159575 16.385300 2.156031
v -5.319372 16.385300 2.156031
v -6.049791 7.204440 -2.079904
v -1.429156 7.204440 -2.079904
v -6.049791 7.204440 2.951362
v -1.429156 7.204440 2.951362
v -5.935625 8.639431 -1.955591
v -5.935625 8.639431 2.827049
v -1.543322 8.639431 2.827049
v -1.543322 8.639431 -1.955591
v -5.761916 10.822834 -1.766445
v -5.761916 10.822834 2.637903
v -1.717031 10.822834 2.637903
v -1.717031 10.822834 -1.766445
v -5.656082 12.153084 -1.651206
v -5.656082 12.153084 2.522665
v -1.822865 12.153084 2.522665
v -1.822865 12.153084 -1.651206
v -5.412038 15.220549 -1.385474
v -5.412038 15.220549 2.256933
v -2.066908 15.220549 2.256933
v -2.066908 15.220549 -1.385474
v -1.975178 14.067558 -1.485357
v -5.503769 14.067558 -1.485357
v -5.503769 14.067558 2.356815
v -1.975178 14.067558 2.356815
v -1.565284 8.632257 -1.931678
v -1.452259 7.211615 -2.054747
v -1.452259 7.211615 2.926205
v -6.026688 7.211615 2.926205
v -6.026688 7.211615 -2.054747
v -5.913663 8.632257 -1.931678
v -5.913663 8.632257 2.803136
v -1.565284 8.632257 2.803136
v -1.842031 12.146433 -1.630337
v -1.737256 10.829485 -1.744423
v -1.737256 10.829485 2.615881
v -5.741691 10.829485 2.615881
v -5.741691 10.829485 -1.744423
v -5.636916 12.146433 -1.630337
v -5.636916 12.146433 2.501795
v -1.842031 12.146433 2.501795
v -5.486126 14.073322 -1.466146
v -5.395313 15.214783 -1.367262
v -5.486126 14.073322 2.337605
v -5.395313 15.214783 2.238721
v -1.992821 14.073322 2.337605
v -2.083634 15.214783 2.238721
v -2.083634 15.214783 -1.367262
v -1.992821 14.073322 -1.466146
v -8.201015 0.100191 -2.216695
v -8.201015 5.625392 5.249793
v -8.201015 2.045399 5.249793
v -8.201015 5.625392 -2.216695
v -8.201015 0.100191 5.249793
v -8.201015 2.045399 -2.216695
v -8.201015 0.100191 3.088153
v -8.201015 5.625392 3.088153
v -8.201015 0.100191 4.918130
v -8.019661 5.625392 4.739273
v -8.019661 5.625392 3.511952
v -8.201015 0.100191 3.333095
v -8.201015 4.543200 -2.216695
v -8.201015 4.543200 5.249793
v -8.201015 3.128156 5.249793
v -8.201015 3.128156 -2.216695
v -8.136675 4.527895 -2.111465
v -8.136675 4.527895 5.193518
v -8.136675 3.143460 5.193518
v -8.136675 3.143460 -2.111465
v -6.593850 5.625392 -2.216695
v -6.593850 0.100191 5.249793
v -6.593850 2.045399 -2.216695
v -6.593850 5.625392 3.088153
v -6.775204 5.625392 4.739273
v -6.775204 5.625392 3.511952
v -6.593850 4.543200 -2.216695
v -6.593850 3.128156 -2.216695
v -6.564274 4.527895 -2.111465
v -6.564274 3.143460 -2.111465
v -6.593850 0.100191 -2.216695
v -6.593850 5.625392 5.249793
v -6.593850 2.045399 5.249793
v -6.593850 0.100191 3.088153
v -6.593850 0.100191 4.918130
v -6.593850 0.100191 3.333095
v -6.593850 4.543200 5.249793
v -6.593850 3.128156 5.249793
v -6.564274 4.527895 5.193518
v -6.564274 3.143460 5.193518
v -8.039202 8.507193 3.492680
v -8.039202 8.507193 4.758545
v -6.755663 8.507193 4.758545
v -6.755663 8.507193 3.492680
v -8.254351 8.683910 3.280493
v -8.254351 8.683910 4.970732
v -6.540514 8.683910 4.970732
v -6.540514 8.683910 3.280493
vn -1.0000 0.0000 0.0000
vn 0.0000 0.0000 -1.0000
vn 1.0000 0.0000 0.0000
vn 0.0000 0.0000 1.0000
vn 0.0000 -1.0000 0.0000
vn 0.0000 1.0000 0.0000
vn 0.4782 0.0000 -0.8783
vn 0.0000 0.0863 -0.9963
vn 0.9088 0.0000 -0.4173
vn 0.0000 0.8762 -0.4819
vn 0.5138 0.8579 0.0000
vn 0.0000 -0.8762 -0.4819
vn 0.5138 -0.8579 0.0000
vn -0.1958 0.9806 0.0000
vn 0.1775 -0.9841 0.0000
vn 0.0000 -0.9650 0.2624
vn 0.1775 0.9841 0.0000
vn -0.1958 -0.9806 0.0000
vn 0.0000 0.9896 -0.1439
vn 0.0000 -0.9896 -0.1439
vn 0.0000 0.9650 0.2624
vn -0.9969 0.0793 0.0000
vn 0.0000 0.0863 0.9963
vn 0.9969 0.0793 0.0000
vn 0.0000 -0.9578 -0.2873
vn -0.2966 0.9550 0.0000
vn 0.3105 -0.9506 0.0000
vn -0.3105 -0.9506 0.0000
vn 0.3278 -0.9447 0.0000
vn -0.3278 -0.9447 0.0000
vn 0.0000 0.9573 0.2892
vn 0.0000 0.9573 -0.2892
vn -0.3105 0.9506 0.0000
vn 0.3259 -0.9454 0.0000
vn 0.3105 0.9506 0.0000
vn -0.3259 -0.9454 0.0000
vn 0.2966 0.9550 0.0000
vn 0.0000 -0.9578 0.2873
vn 0.0000 0.9617 -0.2742
vn 0.0000 0.9617 0.2742
vn -0.3124 0.9500 0.0000
vn 0.0000 -0.9528 -0.3037
vn 0.3124 0.9500 0.0000
vn 0.0000 -0.9528 0.3037
vn 0.0000 -0.9534 -0.3018
vn 0.0000 -0.9534 0.3018
vn 0.0000 0.9578 0.2874
vn 0.0000 0.9578 -0.2874
vn -1.0000 -0.0068 0.0000
vn 0.0000 -0.7684 -0.6400
vn 0.0000 -0.0067 1.0000
vn 1.0000 -0.0068 0.0000
vn 0.0000 -0.0067 -1.0000
vn -0.6347 -0.7727 0.0000
vn 0.6347 -0.7727 0.0000
vn 0.0000 -0.7684 0.6400
usemtl None
s off
f 60//1 20//1 4//1 54//1
f 58//2 14//2 8//2 55//2
f 62//3 34//3 6//3 56//3
f 166//4 154//4 2//4 53//4
f 37//5 39//5 5//5 15//5
f 162//6 38//6 2//6 154//6
f 157//4 155//4 9//4 1//4
f 39//3 35//3 12//3 5//3
f 13//7 18//7 30//7 31//7
f 19//1 24//1 10//1 3//1
f 183//2 175//2 18//2 13//2
f 5//4 12//4 17//4 15//4
f 34//6 36//6 16//6 6//6
f 187//5 37//5 15//5 174//5
f 56//4 6//4 16//4 57//4
f 179//2 173//2 14//2 58//2
f 183//5 13//5 26//5 186//5
f 124//8 121//8 101//8 102//8
f 44//1 43//1 24//1 19//1
f 23//9 21//9 29//9 32//9
f 156//6 4//6 20//6 160//6
f 13//5 7//5 21//5 26//5
f 55//3 8//3 22//3 59//3
f 64//1 41//1 20//1 60//1
f 31//2 30//2 27//2 28//2
f 28//3 27//3 32//3 29//3
f 7//10 13//10 31//10 28//10
f 21//11 7//11 28//11 29//11
f 18//12 11//12 27//12 30//12
f 11//13 23//13 32//13 27//13
f 53//1 2//1 38//1 61//1
f 1//1 9//1 40//1 33//1
f 188//5 48//5 37//5 187//5
f 45//6 47//6 36//6 34//6
f 35//2 39//2 51//2 50//2
f 163//6 41//6 38//6 162//6
f 48//5 42//5 39//5 37//5
f 63//3 45//3 34//3 62//3
f 59//3 22//3 45//3 63//3
f 26//5 21//5 42//5 48//5
f 160//6 20//6 41//6 163//6
f 21//3 23//3 46//3 42//3
f 22//6 25//6 47//6 45//6
f 186//5 26//5 48//5 188//5
f 61//1 38//1 41//1 64//1
f 33//1 40//1 43//1 44//1
f 52//3 49//3 50//3 51//3
f 39//6 42//6 52//6 51//6
f 46//5 35//5 50//5 49//5
f 42//4 46//4 49//4 52//4
f 71//14 75//14 100//14 96//14
f 59//15 63//15 82//15 81//15
f 166//16 53//16 78//16 170//16
f 70//17 66//17 91//17 95//17
f 61//18 64//18 80//18 79//18
f 56//16 57//16 89//16 88//16
f 168//19 65//19 90//19 172//19
f 179//20 58//20 87//20 181//20
f 68//21 67//21 92//21 93//21
f 75//14 72//14 97//14 100//14
f 55//15 59//15 81//15 85//15
f 190//21 68//21 93//21 192//21
f 24//1 71//1 65//1 10//1
f 18//2 69//2 66//2 11//2
f 35//3 73//3 67//3 12//3
f 155//4 167//4 76//4 9//4
f 12//4 67//4 68//4 17//4
f 175//2 180//2 69//2 18//2
f 11//3 66//3 70//3 23//3
f 43//1 75//1 71//1 24//1
f 9//1 76//1 72//1 40//1
f 46//3 74//3 73//3 35//3
f 23//3 70//3 74//3 46//3
f 40//1 72//1 75//1 43//1
f 97//1 79//1 80//1 100//1
f 95//3 81//3 82//3 99//3
f 99//3 82//3 83//3 98//3
f 77//1 78//1 79//1 97//1
f 100//1 80//1 84//1 96//1
f 91//3 85//3 81//3 95//3
f 182//2 181//2 87//2 94//2
f 92//4 88//4 89//4 93//4
f 171//4 170//4 78//4 77//4
f 98//3 83//3 88//3 92//3
f 94//2 87//2 85//2 91//2
f 96//1 84//1 86//1 90//1
f 62//15 56//15 88//15 83//15
f 65//14 71//14 96//14 90//14
f 63//15 62//15 83//15 82//15
f 72//14 76//14 77//14 97//14
f 58//20 55//20 85//20 87//20
f 66//19 69//19 94//19 91//19
f 53//18 61//18 79//18 78//18
f 73//17 74//17 99//17 98//17
f 60//18 54//18 86//18 84//18
f 67//17 73//17 98//17 92//17
f 64//18 60//18 84//18 80//18
f 74//17 70//17 95//17 99//17
f 102//6 101//6 104//6 103//6
f 121//22 122//22 104//22 101//22
f 122//23 123//23 103//23 104//23
f 123//24 124//24 102//24 103//24
f 22//24 8//24 106//24 108//24
f 25//23 22//23 108//23 107//23
f 14//22 25//22 107//22 105//22
f 8//8 14//8 105//8 106//8
f 109//25 112//25 129//25 134//25
f 105//26 107//26 132//26 133//26
f 112//27 111//27 136//27 129//27
f 110//28 109//28 134//28 135//28
f 111//24 112//24 116//24 115//24
f 110//23 111//23 115//23 114//23
f 109//22 110//22 114//22 113//22
f 112//8 109//8 113//8 116//8
f 120//29 119//29 144//29 137//29
f 118//30 117//30 142//30 143//30
f 114//31 115//31 139//31 140//31
f 116//32 113//32 141//32 138//32
f 126//33 127//33 147//33 145//33
f 124//34 123//34 150//34 151//34
f 128//35 125//35 152//35 149//35
f 122//36 121//36 146//36 148//36
f 120//8 117//8 126//8 125//8
f 117//22 118//22 127//22 126//22
f 118//23 119//23 128//23 127//23
f 119//24 120//24 125//24 128//24
f 131//24 130//24 129//24 136//24
f 132//23 131//23 136//23 135//23
f 133//22 132//22 135//22 134//22
f 130//8 133//8 134//8 129//8
f 108//37 106//37 130//37 131//37
f 111//38 110//38 135//38 136//38
f 106//39 105//39 133//39 130//39
f 107//40 108//40 131//40 132//40
f 139//24 138//24 137//24 144//24
f 140//23 139//23 144//23 143//23
f 141//22 140//22 143//22 142//22
f 138//8 141//8 142//8 137//8
f 113//41 114//41 140//41 141//41
f 117//42 120//42 137//42 142//42
f 115//43 116//43 138//43 139//43
f 119//44 118//44 143//44 144//44
f 149//24 152//24 151//24 150//24
f 147//23 149//23 150//23 148//23
f 145//22 147//22 148//22 146//22
f 152//8 145//8 146//8 151//8
f 121//45 124//45 151//45 146//45
f 123//46 122//46 148//46 150//46
f 127//47 128//47 149//47 147//47
f 125//48 126//48 145//48 152//48
f 192//4 191//4 170//4 171//4
f 90//2 86//2 169//2 172//2
f 10//2 65//2 168//2 158//2
f 185//4 190//4 167//4 155//4
f 76//21 167//21 171//21 77//21
f 54//20 165//20 169//20 86//20
f 180//19 168//19 172//19 182//19
f 189//16 166//16 170//16 191//16
f 19//5 159//5 164//5 44//5
f 176//6 160//6 163//6 178//6
f 163//49 162//49 194//49 193//49
f 44//5 164//5 161//5 33//5
f 173//6 156//6 160//6 176//6
f 3//5 153//5 159//5 19//5
f 54//2 4//2 156//2 165//2
f 33//5 161//5 157//5 1//5
f 3//2 10//2 158//2 153//2
f 174//4 185//4 155//4 157//4
f 177//6 162//6 154//6 184//6
f 189//4 184//4 154//4 166//4
f 57//4 16//4 184//4 189//4
f 36//6 177//6 184//6 16//6
f 15//4 17//4 185//4 174//4
f 14//6 173//6 176//6 25//6
f 47//6 178//6 177//6 36//6
f 25//6 176//6 178//6 47//6
f 57//16 189//16 191//16 89//16
f 69//19 180//19 182//19 94//19
f 17//4 68//4 190//4 185//4
f 93//4 89//4 191//4 192//4
f 172//2 169//2 181//2 182//2
f 158//2 168//2 180//2 175//2
f 167//21 190//21 192//21 171//21
f 165//20 179//20 181//20 169//20
f 159//5 186//5 188//5 164//5
f 164//5 188//5 187//5 161//5
f 153//5 183//5 186//5 159//5
f 165//2 156//2 173//2 179//2
f 161//5 187//5 174//5 157//5
f 153//2 158//2 175//2 183//2
f 196//50 193//50 197//50 200//50
f 162//51 177//51 195//51 194//51
f 177//52 178//52 196//52 195//52
f 178//53 163//53 193//53 196//53
f 200//6 197//6 198//6 199//6
f 193//54 194//54 198//54 197//54
f 195//55 196//55 200//55 199//55
f 194//56 195//56 199//56 198//56
