# Blender v2.80 (sub 75) OBJ File: ''
# www.blender.org
mtllib Factory.mtl
o Cube.001
v -3.528446 3.986969 1.075070
v -3.528446 5.069161 1.075070
v -3.528446 5.069162 -4.229778
v -3.528446 3.986970 -4.229778
v -0.933849 3.986970 -4.229778
v -0.933849 5.069162 -4.229778
v 3.938041 5.069162 -4.229778
v 3.938041 3.986970 -4.229778
v 3.938041 3.986969 2.905047
v 3.938041 5.069161 2.905047
v 3.938041 5.069161 3.236710
v 3.938041 3.986969 3.236710
v -2.959446 3.986969 3.236710
v -2.959446 5.069161 3.236710
v -3.528446 5.069161 3.236710
v -3.528446 3.986969 3.236710
v -0.933849 -0.456040 2.905046
v 3.938041 -0.456040 2.905046
v 3.938041 -0.456040 3.236709
v -0.933849 -0.456040 3.236709
v -2.778092 5.069161 2.726190
v -3.528446 5.069161 2.905047
v -2.959446 -0.456040 3.236709
v -2.959446 1.489168 3.236710
v -3.528446 1.489168 3.236710
v -3.528446 -0.456040 3.236709
v 3.938041 1.489168 2.905047
v 3.938041 1.489168 3.236710
v -0.933849 -0.456039 -4.229779
v -0.933849 1.489169 -4.229778
v -0.800032 1.449097 -4.156924
v -0.800032 -0.415966 -4.156925
v -3.528446 -0.456039 1.075069
v -3.528446 1.489168 1.075070
v -3.528446 1.489169 -4.229778
v -3.528446 -0.456039 -4.229779
v -1.352281 -0.456039 -4.229779
v -1.352281 1.489169 -4.229778
v -0.933849 1.489168 3.236710
v -0.933849 5.069161 2.905047
v -0.933849 5.069161 3.236710
v -1.352281 -0.456040 2.905046
v -1.352281 -0.456040 3.236709
v -0.933849 3.986969 3.236710
v -1.352281 3.986970 -4.229778
v -1.352281 5.069162 -4.229778
v -0.933849 -0.456039 1.075069
v -1.352281 -0.456039 1.075069
v 3.174661 14.664319 -3.398555
v -0.170469 14.664319 -3.398555
v -0.077803 15.829070 -3.297654
v 3.081994 15.829070 -3.297654
v -3.528446 -0.456039 1.320011
v -3.528446 1.489168 1.320012
v 3.938041 1.489168 1.075070
v 3.938041 -0.456039 1.075069
v 3.871132 -0.415967 0.929359
v 3.871132 1.449096 0.929359
v -2.959446 5.069162 -4.229778
v -2.959446 5.069161 1.075070
v 3.938041 -0.456039 -4.229779
v 3.938041 5.069161 1.075070
v 3.938041 3.986969 1.075070
v -3.528446 3.986969 1.320012
v -3.528446 5.069161 1.320012
v 3.871132 1.449097 -4.156924
v 3.871132 -0.415966 -4.156925
v 3.938041 1.489169 -4.229778
v -3.528446 3.986969 2.905047
v -3.528446 1.489168 2.905047
v -3.528446 -0.456040 2.905046
v -1.352281 -0.456039 1.320011
v -0.933849 -0.456039 1.320011
v 3.938041 5.069161 1.320012
v -0.933849 5.069161 1.320012
v 3.863376 -0.456040 2.905046
v 3.863376 1.489168 2.905047
v -2.778092 5.069161 1.498869
v 3.938041 -0.456039 1.320011
v 3.938041 3.986969 1.320012
v 3.938041 1.489168 1.320012
v -0.933849 5.069161 1.075070
v 3.863376 -0.456039 1.320011
v 3.863376 1.489168 1.320012
v -3.528446 2.571925 1.075070
v -3.528446 2.571925 1.320012
v -3.451800 2.587229 1.305197
v -3.451800 2.587229 1.065553
v 3.853183 3.971664 1.305197
v 3.853183 3.971664 1.065553
v -3.451800 3.971664 3.180435
v -2.895106 3.971664 3.180435
v 3.938041 2.571925 1.075070
v 3.938041 2.571926 -4.229778
v 3.853183 2.587230 -4.124548
v 3.853183 2.587229 1.065553
v -3.451800 3.971664 1.305197
v -3.451800 3.971664 2.855946
v -0.913325 3.971664 3.180435
v 3.853183 3.971664 3.180435
v -2.959446 2.571926 -4.229778
v -3.528446 2.571926 -4.229778
v -3.451800 2.587230 -4.124548
v -2.895106 2.587230 -4.124548
v -0.913325 3.971665 -4.124548
v -1.322705 3.971665 -4.124548
v -0.933849 2.571925 3.236710
v 3.938041 2.571925 3.236710
v 3.853183 2.587229 3.180435
v -0.913325 2.587229 3.180435
v -3.528446 2.571925 2.905047
v -3.451800 2.587229 2.855946
v 3.853183 3.971665 -4.124548
v -1.352281 2.571925 3.236710
v -1.322705 2.587229 3.180435
v -0.933849 2.571926 -4.229778
v 3.938041 2.571925 2.905047
v -2.959446 2.571925 3.236710
v -3.528446 2.571925 3.236710
v -1.352281 2.571926 -4.229778
v 3.938041 2.571925 1.320012
v 3.853183 2.587229 1.305197
v 3.853183 3.971664 2.855947
v 3.853183 2.587229 2.855947
v -3.451800 2.587229 3.180435
v -3.451800 3.971664 1.065553
v -1.322705 2.587230 -4.124548
v -0.913325 2.587230 -4.124548
v -2.895106 2.587229 3.180435
v -3.451800 3.971665 -4.124548
v -0.077803 15.829069 0.142950
v 3.081994 15.829069 0.142950
v -0.170469 14.664318 0.243852
v 3.174661 14.664318 0.243852
v 3.812413 6.648211 -4.092987
v 3.812413 6.648210 0.938279
v -0.808222 6.648210 0.938279
v -0.808222 6.648211 -4.092987
v -0.694056 8.083201 -3.968673
v 3.698247 8.083201 -3.968673
v 3.676285 8.076028 -3.944760
v -0.672094 8.076028 -3.944760
v -0.785119 6.655385 0.913122
v -0.785119 6.655385 -4.067830
v 3.698247 8.083200 0.813967
v 3.676285 8.076027 0.790054
v -0.694056 8.083200 0.813967
v -0.672094 8.076027 0.790054
v 3.524538 10.266603 -3.779527
v 3.524538 10.266603 0.624821
v -0.520347 10.266603 0.624821
v -0.520347 10.266603 -3.779527
v 3.418704 11.596853 -3.664288
v 3.418704 11.596853 0.509583
v 3.399538 11.590202 0.488713
v 3.399538 11.590202 -3.643419
v -0.414513 11.596853 0.509583
v -0.414513 11.596853 -3.664288
v -0.395347 11.590202 -3.643419
v -0.395347 11.590202 0.488713
v 3.504313 10.273254 0.602799
v -0.500122 10.273254 0.602799
v -0.500122 10.273254 -3.757505
v 3.504313 10.273254 -3.757505
v -0.262200 13.511329 -3.498438
v -0.262200 13.511328 0.343734
v -0.244557 13.517092 0.324524
v -0.244557 13.517093 -3.479227
v 3.157935 14.658552 0.225640
v 3.157935 14.658553 -3.380343
v 3.266391 13.511328 0.343734
v 3.266391 13.511329 -3.498438
v 3.248748 13.517093 -3.479227
v 3.248748 13.517092 0.324524
v -0.153744 14.658553 -3.380343
v -0.153744 14.658552 0.225640
v 3.789310 6.655385 0.913122
v 3.789310 6.655385 -4.067830
v -1.322705 3.971664 3.180435
v -2.895106 3.971665 -4.124548
v -2.959446 1.489169 -4.229778
v -1.352281 1.489168 3.236710
v -2.959446 3.986970 -4.229778
v -1.352281 3.986969 3.236710
v -2.959446 -0.456039 1.075069
v -2.959446 -0.456039 1.320011
v -1.352281 5.069161 1.075070
v -1.533635 5.069161 1.498869
v -2.797632 7.950962 2.745463
v -2.797632 7.950962 1.479598
v -2.959446 -0.456040 2.905046
v -2.959446 -0.456039 -4.229779
v -1.533635 5.069161 2.726190
v -1.352281 5.069161 3.236710
v -1.514094 7.950962 1.479598
v -3.012781 8.127680 1.267411
v -1.298945 8.127680 1.267411
v -1.514094 7.950962 2.745463
v -3.012781 8.127680 2.957650
v -1.298945 8.127680 2.957650
vn -1.0000 -0.0000 0.0000
vn 0.0000 0.0000 -1.0000
vn 1.0000 -0.0000 0.0000
vn 0.0000 -0.0000 1.0000
vn 0.0000 -1.0000 -0.0000
vn 0.0000 1.0000 -0.0000
vn 0.4782 0.0000 -0.8783
vn 0.0000 0.0863 -0.9963
vn 0.9088 0.0000 -0.4173
vn 0.0000 0.8762 -0.4819
vn 0.5138 0.8579 0.0000
vn 0.0000 -0.8762 -0.4819
vn 0.5138 -0.8579 -0.0000
vn -0.1958 0.9806 0.0000
vn 0.1775 -0.9841 -0.0000
vn 0.0000 -0.9649 0.2624
vn 0.0000 -0.9650 0.2624
vn 0.1775 0.9841 0.0000
vn -0.1958 -0.9806 -0.0000
vn 0.0000 0.9896 -0.1439
vn 0.0000 -0.9896 -0.1439
vn 0.0000 0.9650 0.2624
vn -0.9969 0.0793 0.0000
vn 0.0000 0.0863 0.9963
vn 0.9969 0.0793 0.0000
vn 0.0000 -0.9578 -0.2873
vn -0.2966 0.9550 0.0000
vn 0.3105 -0.9506 -0.0000
vn -0.3105 -0.9506 -0.0000
vn 0.3278 -0.9447 0.0000
vn -0.3278 -0.9447 0.0000
vn 0.0000 0.9573 0.2891
vn 0.0000 0.9573 -0.2891
vn -0.3105 0.9506 0.0000
vn 0.3259 -0.9454 -0.0000
vn 0.3105 0.9506 0.0000
vn -0.3259 -0.9454 -0.0000
vn 0.2966 0.9550 0.0000
vn 0.0000 -0.9578 0.2873
vn 0.0000 0.9617 -0.2743
vn 0.0000 0.9617 0.2743
vn -0.3124 0.9500 0.0000
vn 0.0000 -0.9528 -0.3037
vn 0.3124 0.9500 0.0000
vn 0.0000 -0.9528 0.3036
vn 0.0000 -0.9534 -0.3018
vn 0.0000 -0.9534 0.3018
vn 0.0000 0.9578 0.2873
vn 0.0000 0.9578 -0.2873
vn -1.0000 -0.0068 -0.0000
vn 0.0000 -0.7684 -0.6400
vn 0.0000 -0.0067 1.0000
vn 1.0000 -0.0068 -0.0000
vn 0.0000 -0.0067 -1.0000
vn -0.6347 -0.7727 0.0000
vn 0.6347 -0.7727 0.0000
vn 0.0000 -0.7684 0.6400
usemtl None
s 1
f 1//1 2//1 3//1 4//1
f 5//2 6//2 7//2 8//2
f 9//3 10//3 11//3 12//3
f 13//4 14//4 15//4 16//4
f 17//5 18//5 19//5 20//5
f 21//6 22//6 15//6 14//6
f 23//4 24//4 25//4 26//4
f 18//3 27//3 28//3 19//3
f 29//7 30//7 31//7 32//7
f 33//1 34//1 35//1 36//1
f 37//2 38//2 30//2 29//2
f 19//4 28//4 39//4 20//4
f 10//6 40//6 41//6 11//6
f 42//5 17//5 20//5 43//5
f 12//4 11//4 41//4 44//4
f 45//2 46//2 6//2 5//2
f 37//5 29//5 47//5 48//5
f 49//8 50//8 51//8 52//8
f 53//1 54//1 34//1 33//1
f 55//9 56//9 57//9 58//9
f 59//6 3//6 2//6 60//6
f 29//5 61//5 56//5 47//5
f 8//3 7//3 62//3 63//3
f 64//1 65//1 2//1 1//1
f 32//2 31//2 66//2 67//2
f 67//3 66//3 58//3 57//3
f 61//10 29//10 32//10 67//10
f 56//11 61//11 67//11 57//11
f 30//12 68//12 66//12 31//12
f 68//13 55//13 58//13 66//13
f 16//1 15//1 22//1 69//1
f 26//1 25//1 70//1 71//1
f 72//5 73//5 17//5 42//5
f 74//6 75//6 40//6 10//6
f 27//2 18//2 76//2 77//2
f 78//6 65//6 22//6 21//6
f 73//5 79//5 18//5 17//5
f 80//3 74//3 10//3 9//3
f 63//3 62//3 74//3 80//3
f 47//5 56//5 79//5 73//5
f 60//6 2//6 65//6 78//6
f 56//3 55//3 81//3 79//3
f 62//6 82//6 75//6 74//6
f 48//5 47//5 73//5 72//5
f 69//1 22//1 65//1 64//1
f 71//1 70//1 54//1 53//1
f 83//3 84//3 77//3 76//3
f 18//6 79//6 83//6 76//6
f 81//5 27//5 77//5 84//5
f 79//4 81//4 84//4 83//4
f 85//14 86//14 87//14 88//14
f 63//15 80//15 89//15 90//15
f 13//16 16//17 91//17 92//16
f 93//18 94//18 95//18 96//18
f 69//19 64//19 97//19 98//19
f 12//16 44//16 99//16 100//16
f 101//20 102//20 103//20 104//20
f 45//21 5//21 105//21 106//21
f 107//22 108//22 109//22 110//22
f 86//14 111//14 112//14 87//14
f 8//15 63//15 90//15 113//15
f 114//22 107//22 110//22 115//22
f 34//1 85//1 102//1 35//1
f 30//2 116//2 94//2 68//2
f 27//3 117//3 108//3 28//3
f 24//4 118//4 119//4 25//4
f 28//4 108//4 107//4 39//4
f 38//2 120//2 116//2 30//2
f 68//3 94//3 93//3 55//3
f 54//1 86//1 85//1 34//1
f 25//1 119//1 111//1 70//1
f 81//3 121//3 117//3 27//3
f 55//3 93//3 121//3 81//3
f 70//1 111//1 86//1 54//1
f 112//1 98//1 97//1 87//1
f 96//3 90//3 89//3 122//3
f 122//3 89//3 123//3 124//3
f 125//1 91//1 98//1 112//1
f 87//1 97//1 126//1 88//1
f 95//3 113//3 90//3 96//3
f 127//2 106//2 105//2 128//2
f 109//4 100//4 99//4 110//4
f 129//4 92//4 91//4 125//4
f 124//3 123//3 100//3 109//3
f 128//2 105//2 113//2 95//2
f 88//1 126//1 130//1 103//1
f 9//15 12//15 100//15 123//15
f 102//14 85//14 88//14 103//14
f 80//15 9//15 123//15 89//15
f 111//14 119//14 125//14 112//14
f 5//21 8//21 113//21 105//21
f 94//20 116//20 128//20 95//20
f 16//19 69//19 98//19 91//19
f 117//18 121//18 122//18 124//18
f 1//19 4//19 130//19 126//19
f 108//18 117//18 124//18 109//18
f 64//19 1//19 126//19 97//19
f 121//18 93//18 96//18 122//18
f 52//6 51//6 131//6 132//6
f 50//23 133//23 131//23 51//23
f 133//24 134//24 132//24 131//24
f 134//25 49//25 52//25 132//25
f 62//25 7//25 135//25 136//25
f 82//24 62//24 136//24 137//24
f 6//23 82//23 137//23 138//23
f 7//8 6//8 138//8 135//8
f 139//26 140//26 141//26 142//26
f 138//27 137//27 143//27 144//27
f 140//28 145//28 146//28 141//28
f 147//29 139//29 142//29 148//29
f 145//25 140//25 149//25 150//25
f 147//24 145//24 150//24 151//24
f 139//23 147//23 151//23 152//23
f 140//8 139//8 152//8 149//8
f 153//30 154//30 155//30 156//30
f 157//31 158//31 159//31 160//31
f 151//32 150//32 161//32 162//32
f 149//33 152//33 163//33 164//33
f 165//34 166//34 167//34 168//34
f 49//35 134//35 169//35 170//35
f 171//36 172//36 173//36 174//36
f 133//37 50//37 175//37 176//37
f 153//8 158//8 165//8 172//8
f 158//23 157//23 166//23 165//23
f 157//24 154//24 171//24 166//24
f 154//25 153//25 172//25 171//25
f 177//25 178//25 141//25 146//25
f 143//24 177//24 146//24 148//24
f 144//23 143//23 148//23 142//23
f 178//8 144//8 142//8 141//8
f 136//38 135//38 178//38 177//38
f 145//39 147//39 148//39 146//39
f 135//40 138//40 144//40 178//40
f 137//41 136//41 177//41 143//41
f 161//25 164//25 156//25 155//25
f 162//24 161//24 155//24 160//24
f 163//23 162//23 160//23 159//23
f 164//8 163//8 159//8 156//8
f 152//42 151//42 162//42 163//42
f 158//43 153//43 156//43 159//43
f 150//44 149//44 164//44 161//44
f 154//45 157//45 160//45 155//45
f 174//25 173//25 170//25 169//25
f 167//24 174//24 169//24 176//24
f 168//23 167//23 176//23 175//23
f 173//8 168//8 175//8 170//8
f 50//46 49//46 170//46 175//46
f 134//47 133//47 176//47 169//47
f 166//48 171//48 174//48 167//48
f 172//49 165//49 168//49 173//49
f 115//4 179//4 92//4 129//4
f 103//2 130//2 180//2 104//2
f 35//2 102//2 101//2 181//2
f 182//4 114//4 118//4 24//4
f 119//22 118//22 129//22 125//22
f 4//21 183//21 180//21 130//21
f 120//20 101//20 104//20 127//20
f 184//16 13//16 92//16 179//16
f 33//5 185//5 186//5 53//5
f 187//6 60//6 78//6 188//6
f 78//50 21//50 189//50 190//50
f 53//5 186//5 191//5 71//5
f 46//6 59//6 60//6 187//6
f 36//5 192//5 185//5 33//5
f 4//2 3//2 59//2 183//2
f 71//5 191//5 23//5 26//5
f 36//2 35//2 181//2 192//2
f 43//4 182//4 24//4 23//4
f 193//6 21//6 14//6 194//6
f 184//4 194//4 14//4 13//4
f 44//4 41//4 194//4 184//4
f 40//6 193//6 194//6 41//6
f 20//4 39//4 182//4 43//4
f 6//6 46//6 187//6 82//6
f 75//6 188//6 193//6 40//6
f 82//6 187//6 188//6 75//6
f 44//16 184//16 179//16 99//16
f 116//20 120//20 127//20 128//20
f 39//4 107//4 114//4 182//4
f 110//4 99//4 179//4 115//4
f 104//2 180//2 106//2 127//2
f 181//2 101//2 120//2 38//2
f 118//22 114//22 115//22 129//22
f 183//21 45//21 106//21 180//21
f 185//5 48//5 72//5 186//5
f 186//5 72//5 42//5 191//5
f 192//5 37//5 48//5 185//5
f 183//2 59//2 46//2 45//2
f 191//5 42//5 43//5 23//5
f 192//2 181//2 38//2 37//2
f 195//51 190//51 196//51 197//51
f 21//52 193//52 198//52 189//52
f 193//53 188//53 195//53 198//53
f 188//54 78//54 190//54 195//54
f 197//6 196//6 199//6 200//6
f 190//55 189//55 199//55 196//55
f 198//56 195//56 197//56 200//56
f 189//57 198//57 200//57 199//57
